<?xml version="1.0" encoding="utf-8"?>
<?xml-stylesheet type="text/css" href="DiagramStyles.css"?>
<!-- Generator: Adobe Illustrator 21.1.0, SVG Export Plug-In . SVG Version: 6.00 Build 0)  -->
<svg version="1.1" id="LayerFigs" xmlns="http://www.w3.org/2000/svg" xmlns:xlink="http://www.w3.org/1999/xlink" x="0px" y="0px"
	 viewBox="0 0 200 200" style="enable-background:new 0 0 200 200;" xml:space="preserve">
<g id="Fig60Deg">
	<g id="Fig1Filling" class="stEmpty">
		<path d="M170.7,29.3l-53,53c-3.2-3.2-7.1-5.4-11.2-6.5l19.4-72.4l0,0C142.3,7.8,157.8,16.4,170.7,29.3z"/>
	</g>
	<g class="stLines">
		<path  d="M106.3,75.8c0.1,0,0.1,0,0.2,0.1c4.1,1.1,8,3.2,11.2,6.5"/>
		<path  d="M125.9,3.4c16.4,4.4,31.9,13,44.8,25.9"/>
		<line  x1="106.5" y1="75.9" x2="125.9" y2="3.4"/>
		<line  x1="117.7" y1="82.3" x2="170.7" y2="29.3"/>
	</g>
</g>
<g id="Fig90Deg">
	<g id="Fig12Filling" class="stEmpty">
		<path  d="M125.9,3.4L125.9,3.4l-19.4,72.5l-0.2-0.1c-4.2-1.1-8.6-1.1-12.7,0.1L74.1,3.4l0,0C91-1.1,109-1.1,125.9,3.4z
			"/>
	</g>
	<g class="stLines">
		<path  d="M93.5,75.9c4.2-1.1,8.6-1.1,12.7-0.1"/>
		<path  d="M74.1,3.4c16.9-4.5,34.8-4.5,51.8,0"/>
		<line  x1="74.1" y1="3.4" x2="93.5" y2="75.9"/>
		<line  x1="106.5" y1="75.9" x2="125.9" y2="3.4"/>
	</g>
</g>
<g id="Fig120Deg">
	<g id="Fig11Filling" class="stEmpty">
		<path  d="M74.1,3.4L74.1,3.4l19.4,72.5c-4.1,1.1-8,3.3-11.2,6.5l-53-53C42.2,16.4,57.7,7.8,74.1,3.4z"/>
	</g>
	<g class="stLines">
		<path  d="M82.3,82.3c3.2-3.2,7.1-5.4,11.2-6.5"/>
		<path  d="M29.3,29.3C42.2,16.4,57.7,7.8,74.1,3.4"/>
		<line  x1="29.3" y1="29.3" x2="82.3" y2="82.3"/>
		<line  x1="74.1" y1="3.4" x2="93.5" y2="75.9"/>
	</g>
</g>
<g id="Fig150Deg">
	<g id="Fig10Filling" class="stEmpty">
		<path  d="M29.3,29.3l53,53c-3.2,3.2-5.4,7.1-6.5,11.2L3.4,74.1l0,0C7.8,57.7,16.4,42.2,29.3,29.3z"/>
	</g>
	<g class="stLines">
		<path  d="M75.8,93.7c0-0.1,0-0.1,0.1-0.2c1.1-4.1,3.2-8,6.5-11.2"/>
		<path  d="M3.4,74.1c4.4-16.4,13-31.9,25.9-44.8"/>
		<line  x1="75.9" y1="93.5" x2="3.4" y2="74.1"/>
		<line  x1="29.3" y1="29.3" x2="82.3" y2="82.3"/>
	</g>
</g>
<g id="Fig180Deg">
	<g id="Fig9Filling" class="stEmpty">
		<path  d="M3.4,74.1l72.4,19.4l-0.1,0.2c-1.1,4.2-1.1,8.6,0.1,12.7L3.4,125.9l0,0C-1.1,109-1.1,91,3.4,74.1L3.4,74.1z"
			/>
	</g>
	<g class="stLines">
		<path  d="M75.9,106.5c-1.1-4.2-1.1-8.6-0.1-12.7"/>
		<path  d="M3.4,125.9C-1.1,109-1.1,91,3.4,74.1"/>
		<line  x1="75.9" y1="106.5" x2="3.4" y2="125.9"/>
		<line  x1="75.9" y1="93.5" x2="3.4" y2="74.1"/>
	</g>
</g>
<g id="Fig210Deg">
	<g id="Fig8Filling" class="stEmpty">
		<path  d="M3.4,125.9l72.4-19.4c1.1,4.1,3.3,8,6.5,11.2l-53,53C16.4,157.8,7.8,142.3,3.4,125.9L3.4,125.9z"/>
	</g>
	<g class="stLines">
		<path  d="M82.3,117.7c-3.2-3.2-5.4-7.1-6.5-11.2"/>
		<path  d="M29.3,170.7c-12.9-12.9-21.5-28.4-25.9-44.8"/>
		<line  x1="82.3" y1="117.7" x2="29.3" y2="170.7"/>
		<line  x1="75.9" y1="106.5" x2="3.4" y2="125.9"/>
	</g>
</g>
<g id="Fig240Deg">
	<g id="Fig7Filling" class="stEmpty">
		<path  d="M93.5,124.1l-19.4,72.4v0c-16.4-4.4-31.9-13-44.8-25.9l53-53C85.5,120.9,89.4,123.1,93.5,124.1z"/>
	</g>
	<g class="stLines">
		<path  d="M93.7,124.2c-0.1,0-0.1,0-0.2,0c-4.1-1.1-8-3.2-11.2-6.5"/>
		<path  d="M74.1,196.6c-16.4-4.4-31.9-13-44.8-25.9"/>
		<line  x1="82.3" y1="117.7" x2="29.3" y2="170.7"/>
		<line  x1="93.5" y1="124.1" x2="74.1" y2="196.6"/>
	</g>
</g>
<g id="Fig270Deg">
	<g  id="Fig6Filling" class="stEmpty">
		<path  d="M106.5,124.1l19.4,72.4l0.1,0.3c-16.9,4.5-34.7,4.3-51.8-0.3v0l19.4-72.4l0.2,0
			C97.9,125.3,102.3,125.3,106.5,124.1L106.5,124.1z"/>
	</g>
	<g class="stLines">
		<path  d="M106.5,124.2c-4.2,1.1-8.6,1.1-12.7,0"/>
		<path  d="M126,196.9c-16.9,4.5-34.7,4.3-51.8-0.3"/>
		<line  x1="93.5" y1="124.1" x2="74.1" y2="196.6"/>
		<line  x1="106.5" y1="124.1" x2="125.9" y2="196.6"/>
	</g>
</g>
<g id="Fig300Deg">
	<g  id="Fig5Filling" class="stEmpty">
		<path  d="M117.7,117.7l53,53l-0.7,0.7c-12.8,12.8-28,21.2-44.1,25.4l-0.1-0.3l-19.4-72.4
			C110.6,123.1,114.5,120.9,117.7,117.7z"/>
	</g>
	<g class="stLines">
		<path  d="M117.7,117.7c-3.2,3.2-7.1,5.4-11.2,6.5l0,0"/>
		<path  d="M170,171.4c-12.8,12.8-28,21.2-44.1,25.4"/>
		<line  x1="106.5" y1="124.1" x2="125.9" y2="196.6"/>
		<line  x1="117.7" y1="117.7" x2="170.7" y2="170.7"/>
	</g>
</g>
<g id="Fig330Deg">
	<g  id="Fig4Filling" class="stEmpty">
		<path  d="M196.6,125.9L196.6,125.9c-4.5,16.3-13.1,31.8-25.9,44.8l-53-53c3.2-3.2,5.4-7.1,6.5-11.2L196.6,125.9z"/>
	</g>
	<g class="stLines">
		<path  d="M124.2,106.3c0,0.1,0,0.1-0.1,0.2c-1.1,4.1-3.2,8-6.5,11.2"/>
		<path  d="M196.6,125.9c-4.5,16.3-13.2,31.8-25.9,44.8c-0.2,0.2-0.5,0.5-0.7,0.7"/>
		<polyline  points="117.7,117.7 170.7,170.7 170.7,170.7 		"/>
		<line  x1="124.1" y1="106.5" x2="196.6" y2="125.9"/>
	</g>
</g>
<g id="Fig0Deg">
	<g  id="Fig3Filling" class="stEmpty">
		<path  d="M196.6,74.1L196.6,74.1c4.5,16.9,4.5,34.8,0,51.8l0,0l-72.4-19.4l0.1-0.2c1.1-4.2,1.1-8.6-0.1-12.7
			L196.6,74.1z"/>
	</g>
	<g class="stLines">
		<path  d="M124.1,93.5c1.1,4.2,1.1,8.6,0.1,12.7"/>
		<path  d="M196.6,74.1c4.5,16.9,4.5,34.8,0,51.8"/>
		<line  x1="124.1" y1="106.5" x2="196.6" y2="125.9"/>
		<line  x1="124.1" y1="93.5" x2="196.6" y2="74.1"/>
	</g>
</g>
<g id="Fig30Deg">
	<g  id="Fig2Filling" class="stEmpty">
		<path  d="M117.7,82.3l53-53c12.9,12.9,21.5,28.4,25.9,44.8l0,0l-72.4,19.4C123.1,89.4,120.9,85.5,117.7,82.3z"/>
	</g>
	<g class="stLines">
		<path  d="M117.7,82.3c3.2,3.2,5.4,7.1,6.5,11.2"/>
		<path  d="M170.7,29.3c12.9,12.9,21.5,28.4,25.9,44.8"/>
		<line  x1="124.1" y1="93.5" x2="196.6" y2="74.1"/>
		<line  x1="117.7" y1="82.3" x2="170.7" y2="29.3"/>
	</g>
</g>
<g id="FigCenterRound">
	<g  id="FigCenterFilling" class="stEmpty">
		<path d="M117.7,82.3c3.2,3.2,5.4,7.1,6.5,11.2c1.1,4.2,1.1,8.6,0.1,12.7c-1.1,4.2-3.3,8.1-6.5,11.4c-3.2,3.2-7.1,5.4-11.2,6.5
			c-4.2,1.1-8.6,1.1-12.7,0c-4.2-1.1-8.1-3.2-11.4-6.5c-3.2-3.2-5.4-7.1-6.5-11.2c-1.1-4.2-1.1-8.6-0.1-12.7
			c1.1-4.2,3.3-8.1,6.5-11.4c3.2-3.2,7.1-5.4,11.2-6.5c4.2-1.1,8.6-1.1,12.7-0.1C110.5,76.9,114.4,79,117.7,82.3z"/>
	</g>
	<g class="stLines">
		<path  d="M117.7,82.3c3.2,3.2,5.4,7.1,6.5,11.2"/>
		<path  d="M124.1,93.5c1.1,4.2,1.1,8.6,0.1,12.7"/>
		<path  d="M124.2,106.3c-1.1,4.2-3.3,8.1-6.5,11.4"/>
		<path  d="M117.7,117.7c-3.2,3.2-7.1,5.4-11.2,6.5"/>
		<path  d="M106.5,124.2c-4.2,1.1-8.6,1.1-12.7,0"/>
		<path  d="M93.7,124.2c-4.2-1.1-8.1-3.2-11.4-6.5"/>
		<path  d="M82.3,117.7c-3.2-3.2-5.4-7.1-6.5-11.2"/>
		<path  d="M75.9,106.5c-1.1-4.2-1.1-8.6-0.1-12.7"/>
		<path  d="M75.8,93.7c1.1-4.2,3.3-8.1,6.5-11.4"/>
		<path  d="M82.3,82.3c3.2-3.2,7.1-5.4,11.2-6.5"/>
		<path  d="M93.5,75.9c4.2-1.1,8.6-1.1,12.7-0.1"/>
		<path  d="M106.3,75.8c4.2,1.1,8.1,3.3,11.4,6.5"/>
	</g>
</g>
</svg>
